<svg width="84" height="29" viewBox="0 0 84 29" fill="none" xmlns="http://www.w3.org/2000/svg">
<path fill-rule="evenodd" clip-rule="evenodd" d="M36.4069 13.4076C35.6078 13.4056 34.9638 13.6301 34.4759 14.0809C34.1009 14.4272 33.822 14.8804 33.6395 15.4404C33.5526 15.7073 33.7484 15.9827 34.0291 15.9834L38.6799 15.9949C38.96 15.9956 39.1565 15.7231 39.0725 15.4552C38.8938 14.8873 38.6184 14.4301 38.2471 14.0847C37.7648 13.6348 37.1511 13.4094 36.4069 13.4076ZM36.44 10.4141C38.2945 10.4188 39.798 11.0481 40.9532 12.3008C42.1073 13.555 42.6863 15.1892 42.6901 17.2026C42.6894 17.4918 42.6797 17.7552 42.661 17.9935C42.6443 18.2082 42.4645 18.3725 42.2495 18.3718L34.0122 18.3514C33.7313 18.3507 33.5325 18.6259 33.6201 18.8928C33.8264 19.5223 34.1596 20.0118 34.6193 20.3617C35.2032 20.8078 35.9256 21.0307 36.7863 21.033C37.3458 21.0343 37.9135 20.9274 38.4903 20.7104C38.9478 20.5393 39.3694 20.3141 39.7549 20.034C39.9265 19.9093 40.1632 19.9293 40.3061 20.0867L41.7956 21.7303C41.9532 21.9041 41.9357 22.1764 41.7534 22.3242C40.3806 23.438 38.6557 23.9909 36.5796 23.9858C34.5922 23.9809 32.9822 23.3578 31.7476 22.1181C30.5129 20.8774 29.8982 19.2454 29.9031 17.2235C29.9082 15.1921 30.5155 13.5485 31.7252 12.2915C32.9346 11.0354 34.5064 10.4092 36.44 10.4141Z" fill="#F28924"/>
<path fill-rule="evenodd" clip-rule="evenodd" d="M51.0195 13.6837C50.0437 13.6813 49.2468 14.0138 48.6289 14.6827C48.0107 15.3504 47.7006 16.1991 47.6982 17.2287C47.6955 18.2569 48.0011 19.1072 48.616 19.778C49.231 20.4497 50.0259 20.7865 51.0017 20.7887C52.0046 20.7912 52.81 20.454 53.4192 19.7776C54.0287 19.0998 54.3339 18.2556 54.3366 17.2451C54.3393 16.2333 54.0379 15.388 53.4321 14.708C52.826 14.0271 52.0222 13.6862 51.0195 13.6837ZM51.6666 10.4522C53.4493 10.4566 54.935 11.1084 56.1258 12.406C57.3154 13.7039 57.908 15.3202 57.9031 17.254C57.8982 19.1876 57.2978 20.8001 56.1015 22.092C54.9043 23.3848 53.4199 24.028 51.6461 24.0234C50.4069 24.0203 49.3657 23.6777 48.5226 22.9951C48.255 22.7786 47.8562 22.9715 47.8553 23.3156L47.8422 28.5926C47.8415 28.8198 47.6568 29.0005 47.4296 28.9998H44.7934C44.5662 28.9991 44.3824 28.8111 44.3831 28.5841L44.4264 11.2533C44.4271 11.0259 44.6116 10.8454 44.8387 10.846H47.4092C47.6361 10.8465 47.8198 11.0346 47.8195 11.2617C47.8186 11.6101 48.2254 11.7414 48.4924 11.5176C49.3439 10.8041 50.402 10.4491 51.6666 10.4522Z" fill="#F28924"/>
<path fill-rule="evenodd" clip-rule="evenodd" d="M65.9848 13.721C64.9921 13.7186 64.1879 14.0555 63.574 14.7333C62.9602 15.4099 62.6526 16.2541 62.6499 17.266C62.6475 18.2765 62.9511 19.122 63.5615 19.8029C64.1719 20.4824 64.9746 20.8238 65.9673 20.826C66.952 20.8285 67.7528 20.4959 68.3712 19.8271C68.9896 19.1594 69.3006 18.3109 69.3031 17.2824C69.3053 16.2528 68.999 15.4028 68.3839 14.732C67.7686 14.06 66.9698 13.7235 65.9848 13.721ZM72.6037 11.2617L72.5737 23.3318C72.5732 23.559 72.3885 23.7397 72.1611 23.739H69.5922C69.3648 23.7386 69.1812 23.5505 69.1817 23.3234V23.3134C69.1826 22.9664 68.7778 22.7721 68.5111 22.9935C67.6522 23.7059 66.589 24.0607 65.3213 24.0576C63.5462 24.0531 62.0651 23.4025 60.8755 22.1037C59.6845 20.806 59.0921 19.1907 59.097 17.2571C59.1017 15.3232 59.7023 13.7099 60.8995 12.418C62.0958 11.1261 63.5802 10.4819 65.3551 10.4864C66.6177 10.4895 67.6793 10.8531 68.5388 11.5773C68.8047 11.8012 69.211 11.6089 69.2119 11.2615V11.2532C69.2124 11.0259 69.3971 10.8454 69.6242 10.846H72.1934C72.4205 10.8465 72.6041 11.0345 72.6037 11.2617Z" fill="#F28924"/>
<path fill-rule="evenodd" clip-rule="evenodd" d="M82.6044 11.2565L82.6301 13.5516C82.6293 13.7788 82.4448 13.9577 82.2178 13.957H78.3706C78.1434 13.9566 77.9587 14.1355 77.9582 14.3627L77.9473 18.6616C77.9456 19.4249 78.1183 19.9813 78.469 20.3327C78.8187 20.6848 79.2859 20.8606 79.8712 20.862C80.4673 20.8635 81.1495 20.6573 81.9184 20.2445C82.1258 20.1331 82.3841 20.2205 82.4837 20.4336L83.4135 22.4231C83.5017 22.6124 83.4339 22.8385 83.2565 22.9485C82.0206 23.7154 80.699 24.0971 79.2915 24.0935C77.7033 24.0897 76.5025 23.6481 75.689 22.7676C74.8743 21.8869 74.47 20.609 74.4742 18.9328L74.5029 7.43595C74.5035 7.20855 74.688 7.02473 74.9152 7.02539L77.565 7.03206C77.7922 7.03273 77.976 7.21722 77.9753 7.44462L77.9364 10.4221C77.9358 10.6493 78.1196 10.8453 78.347 10.846H82.1936C82.4212 10.8464 82.605 11.0294 82.6044 11.2565Z" fill="#F28924"/>
<path fill-rule="evenodd" clip-rule="evenodd" d="M28.1622 11.2565L28.188 13.5516C28.1873 13.7788 28.0026 13.9577 27.7755 13.957H23.9284C23.7013 13.9566 23.5165 14.1355 23.5159 14.3627L23.5052 18.6616C23.5034 19.4249 23.6766 19.9813 24.0269 20.3327C24.3763 20.6848 24.8438 20.8606 25.429 20.862C26.025 20.8635 26.7074 20.6573 27.4763 20.2445C27.6834 20.1331 27.9419 20.2205 28.0415 20.4336L28.9711 22.4231C29.0596 22.6124 28.992 22.8385 28.8144 22.9485C27.5785 23.7154 26.2566 24.0971 24.8491 24.0935C23.2611 24.0897 22.0604 23.6481 21.2468 22.7676C20.4319 21.8869 20.0278 20.609 20.032 18.9328L20.0607 7.43595C20.0612 7.20855 20.2459 7.02473 20.4731 7.02539L23.1229 7.03206C23.35 7.03273 23.5337 7.21722 23.5332 7.44462L23.4943 10.4221C23.4936 10.6493 23.6775 10.8453 23.9046 10.846H27.7517C27.9791 10.8464 28.1627 11.0294 28.1622 11.2565Z" fill="#F28924"/>
<path fill-rule="evenodd" clip-rule="evenodd" d="M12.2681 1.93719C9.69546 -0.6415 5.51946 -0.64639 2.94077 1.92652C0.362078 4.49921 0.35741 8.67521 2.9301 11.2539C5.50278 13.8326 9.67879 13.8373 12.2575 11.2646C14.8362 8.69188 14.8408 4.51588 12.2681 1.93719Z" fill="#027479"/>
<path fill-rule="evenodd" clip-rule="evenodd" d="M1.22435 14.2597C1.29326 14.001 1.56133 13.8478 1.82473 13.9105C5.14384 14.6871 10.0647 14.7014 13.3967 13.9445C13.6608 13.8845 13.9275 14.0381 13.9951 14.2973C13.9944 14.2979 13.994 14.2988 13.9933 14.2997C13.9955 14.3064 13.9989 14.3124 14.0004 14.3188C14.3939 15.8819 14.7866 17.4448 15.179 19.0081C15.245 19.2675 15.0345 19.5456 14.7077 19.6209C13.7341 19.8459 12.7528 20.023 11.7665 20.1526C11.4373 20.1955 11.193 20.4405 11.2215 20.7072C11.3184 21.5814 11.4151 22.4561 11.5118 23.3308C11.542 23.5975 11.2666 23.8467 10.8958 23.8807C8.69079 24.0863 6.47108 24.0799 4.26716 23.8614C3.89662 23.8238 3.62277 23.574 3.65455 23.3074C3.75636 22.4332 3.85816 21.5597 3.96019 20.6859C3.9902 20.4193 3.74747 20.1728 3.41827 20.1279C2.43289 19.9926 1.45263 19.8098 0.480372 19.5791C0.154063 19.5018 -0.0548819 19.2226 0.0126917 18.9636C0.414132 17.4028 0.821797 15.8203 1.22435 14.2597Z" fill="#F28924"/>
</svg>
